<?xml version="1.0" encoding="utf-8"?>
<!-- Generator: Adobe Illustrator 23.0.0, SVG Export Plug-In . SVG Version: 6.00 Build 0)  -->
<svg version="1.1" id="Layer_1" xmlns="http://www.w3.org/2000/svg" xmlns:xlink="http://www.w3.org/1999/xlink" x="0px" y="0px"
	 viewBox="0 0 2000 505.7" style="enable-background:new 0 0 2000 505.7;" xml:space="preserve">
<style type="text/css">
	.st0{fill:#F04D24;}
	.st1{fill:url(#SVGID_1_);}
	.st2{fill:url(#SVGID_2_);}
	.st3{fill:url(#SVGID_3_);}
	.st4{fill:url(#SVGID_4_);}
	.st5{fill:#FFFFFF;}
	.st6{opacity:0.7;}
</style>
<g>
	<path class="st0" d="M348.8,28.5v292.7c0,22.7-4.2,43.8-12.7,63.4c-8.5,19.6-20,36.8-34.8,51.8c-14.7,15-31.9,26.7-51.4,35.1
		c-19.6,8.4-40.7,12.7-63.4,12.7h-32.6v-64.5h32.6c13.5,0,26.2-2.5,38-7.6c11.8-5.1,22.2-12.1,31.2-21c8.9-8.9,15.9-19.4,21-31.5
		c5.1-12.1,7.6-24.9,7.6-38.4v-0.7c-13.5,10.6-28.6,18.8-45.3,24.6c-16.7,5.8-34.2,8.7-52.5,8.7c-22.2,0-43.2-4.2-63-12.7
		c-19.8-8.4-37.2-20.2-52.2-35.1c-15-15-26.7-32.4-35.1-52.2c-8.5-19.8-12.7-40.8-12.7-63V28.5H88v162.3c0,13.5,2.5,26.3,7.6,38.4
		c5.1,12.1,12.1,22.6,21,31.5c8.9,8.9,19.4,15.9,31.5,21c12.1,5.1,24.9,7.6,38.4,7.6c13.5,0,26.2-2.5,38-7.6
		c11.8-5.1,22.2-12.1,31.2-21c8.9-8.9,15.9-19.4,21-31.5c5.1-12.1,7.6-24.9,7.6-38.4V28.5H348.8z"/>
	<g>
		<linearGradient id="SVGID_1_" gradientUnits="userSpaceOnUse" x1="377.0864" y1="190.4076" x2="963.2128" y2="190.4076">
			<stop  offset="0" style="stop-color:#FFFFFF"/>
			<stop  offset="0.4367" style="stop-color:#DFDEDF"/>
			<stop  offset="1" style="stop-color:#B9B8BC"/>
		</linearGradient>
		<path class="st1" d="M800.2,27.8c22.7,0,43.8,4.2,63.4,12.7c19.6,8.5,36.8,20,51.8,34.8c15,14.7,26.7,31.9,35.1,51.4
			c8.4,19.6,12.7,40.7,12.7,63.4v163h-64.5V190c0-13.5-2.5-26.2-7.6-38c-5.1-11.8-12.1-22.2-21-31.2c-8.9-8.9-19.5-15.9-31.5-21
			c-12.1-5.1-24.9-7.6-38.4-7.6c-13.5,0-26.2,2.5-38,7.6c-11.8,5.1-22.2,12.1-31.2,21c-8.9,8.9-15.9,19.3-21,31.2
			c-5.1,11.8-7.6,24.5-7.6,38v163h-64.5V190c0-13.5-2.5-26.2-7.6-38c-5.1-11.8-12.1-22.2-21-31.2c-8.9-8.9-19.4-15.9-31.5-21
			c-12.1-5.1-24.9-7.6-38.4-7.6c-13.5,0-26.2,2.5-38,7.6c-11.8,5.1-22.2,12.1-31.2,21c-8.9,8.9-15.9,19.3-21,31.2
			c-5.1,11.8-7.6,24.5-7.6,38v163h-64.5V190c0-22.7,4.2-43.8,12.7-63.4c8.4-19.6,20-36.7,34.8-51.4c14.7-14.7,32-26.3,51.8-34.8
			c19.8-8.4,40.8-12.7,63-12.7c27,0,51.8,5.9,74.3,17.8c22.5,11.8,41.2,27.9,56.2,48.2c15-20.3,33.8-36.3,56.5-48.2
			C749,33.7,773.6,27.8,800.2,27.8z"/>
		<linearGradient id="SVGID_2_" gradientUnits="userSpaceOnUse" x1="994.366" y1="191.857" x2="1294.3092" y2="191.857">
			<stop  offset="0" style="stop-color:#FFFFFF"/>
			<stop  offset="0.4367" style="stop-color:#DFDEDF"/>
			<stop  offset="1" style="stop-color:#B9B8BC"/>
		</linearGradient>
		<path class="st2" d="M1248.7,238.6l45.6,45.6l-22.5,22.5c-15.5,15.5-33.1,27.3-52.9,35.5c-19.8,8.2-40.6,12.3-62.3,12.3
			c-21.7,0-42.5-4.1-62.3-12.3c-19.8-8.2-37.4-20-52.9-35.5c-15.9-15.9-27.8-33.9-35.5-54c-7.7-20-11.6-40.4-11.6-61.2
			c0-20.8,3.9-41,11.6-60.9c7.7-19.8,19.6-37.7,35.5-53.6c15.9-15.9,33.9-27.9,54-35.9c20-8,40.4-12,61.2-12c20.8,0,41.2,4,61.2,12
			c20,8,38,19.9,54,35.9l22.5,22.5l-180.4,180.4c18.4,9.2,37.8,12.2,58.3,9.1c20.5-3.1,38.5-12.4,54-27.9L1248.7,238.6z
			 M1087.1,121.9c-19.3,19.3-29,42.5-29,69.6c0,15,3.4,29.2,10.1,42.7c5.8-5.8,14.6-14.6,26.4-26.4c11.8-11.8,24.4-24.4,37.7-37.7
			c13.3-13.3,26.1-26,38.4-38c12.3-12.1,21.9-21.5,28.6-28.3c-18.4-9.2-37.8-12.3-58.3-9.4C1120.5,97.3,1102.6,106.5,1087.1,121.9z"
			/>
		<linearGradient id="SVGID_3_" gradientUnits="userSpaceOnUse" x1="1322.5607" y1="190.4076" x2="1647.8654" y2="190.4076">
			<stop  offset="0" style="stop-color:#FFFFFF"/>
			<stop  offset="0.4367" style="stop-color:#DFDEDF"/>
			<stop  offset="1" style="stop-color:#B9B8BC"/>
		</linearGradient>
		<path class="st3" d="M1616,27.8v64.5h-196.3c-9.2,0-16.9,3.1-23.2,9.4c-6.3,6.3-9.4,14-9.4,23.2c0,9.2,3.1,17,9.4,23.5
			c6.3,6.5,14,9.8,23.2,9.8h130.4c13.5,0,26.2,2.5,38,7.6c11.8,5.1,22.2,12,31.2,20.6c8.9,8.7,15.9,19,21,30.8
			c5.1,11.8,7.6,24.5,7.6,38c0,13.5-2.5,26.2-7.6,38c-5.1,11.8-12.1,22.2-21,31.2c-8.9,8.9-19.3,15.9-31.2,21
			c-11.8,5.1-24.5,7.6-38,7.6h-195.6v-64.5h195.6c9.7,0,17.6-3.1,23.9-9.4c6.3-6.3,9.4-14.2,9.4-23.9c0-9.2-3.1-16.9-9.4-23.2
			c-6.3-6.3-14.3-9.4-23.9-9.4h-130.4c-13.5,0-26.2-2.5-38-7.6c-11.8-5.1-22.1-12.1-30.8-21c-8.7-8.9-15.6-19.3-20.7-31.2
			c-5.1-11.8-7.6-24.5-7.6-38c0-13.5,2.5-26.2,7.6-38c5.1-11.8,12-22.1,20.7-30.8c8.7-8.7,19-15.6,30.8-20.6
			c11.8-5.1,24.5-7.6,38-7.6H1616z"/>
		<linearGradient id="SVGID_4_" gradientUnits="userSpaceOnUse" x1="1676.1227" y1="191.857" x2="1976.0659" y2="191.857">
			<stop  offset="0" style="stop-color:#FFFFFF"/>
			<stop  offset="0.4367" style="stop-color:#DFDEDF"/>
			<stop  offset="1" style="stop-color:#B9B8BC"/>
		</linearGradient>
		<path class="st4" d="M1930.4,238.6l45.6,45.6l-22.5,22.5c-15.5,15.5-33.1,27.3-52.9,35.5c-19.8,8.2-40.6,12.3-62.3,12.3
			c-21.7,0-42.5-4.1-62.3-12.3c-19.8-8.2-37.4-20-52.9-35.5c-15.9-15.9-27.8-33.9-35.5-54c-7.7-20-11.6-40.4-11.6-61.2
			c0-20.8,3.9-41,11.6-60.9c7.7-19.8,19.6-37.7,35.5-53.6c15.9-15.9,33.9-27.9,54-35.9c20-8,40.5-12,61.2-12c20.8,0,41.2,4,61.2,12
			c20,8,38,19.9,54,35.9l22.5,22.5l-180.4,180.4c18.4,9.2,37.8,12.2,58.3,9.1c20.5-3.1,38.5-12.4,54-27.9L1930.4,238.6z
			 M1768.9,121.9c-19.3,19.3-29,42.5-29,69.6c0,15,3.4,29.2,10.1,42.7c5.8-5.8,14.6-14.6,26.4-26.4c11.8-11.8,24.4-24.4,37.7-37.7
			c13.3-13.3,26.1-26,38.4-38c12.3-12.1,21.8-21.5,28.6-28.3c-18.4-9.2-37.8-12.3-58.3-9.4C1802.3,97.3,1784.3,106.5,1768.9,121.9z"
			/>
	</g>
	<path class="st5" d="M2070.7,219.5"/>
</g>
<g class="st6">
	<path class="st5" d="M438.8,423.3l-22.9,0l0.1,63.3l-12.7,0l-0.1-63.3l-22.8,0l0-10.3l58.4,0L438.8,423.3z"/>
	<path class="st5" d="M503.8,453.7l-30.2,0l0,22.6l35.3,0l0,10.2l-48.1,0l-0.1-73.6l47.8,0l0,10.3l-35,0l0,20.3l30.2,0L503.8,453.7z
		"/>
	<path class="st5" d="M587.8,462.5c-0.7,7.9-3.6,14-8.7,18.4c-5,4.4-11.8,6.6-20.2,6.6c-5.9,0-11-1.4-15.5-4.2
		c-4.5-2.8-7.9-6.7-10.3-11.8c-2.4-5.1-3.7-11.1-3.8-17.8l0-6.9c0-6.9,1.2-13.1,3.7-18.4c2.4-5.3,6-9.4,10.6-12.2
		c4.6-2.9,9.9-4.3,15.9-4.3c8.1,0,14.7,2.2,19.6,6.6c5,4.4,7.8,10.6,8.7,18.7l-12.7,0c-0.6-5.3-2.2-9.1-4.6-11.4
		c-2.5-2.3-6.1-3.5-10.9-3.5c-5.6,0-9.8,2-12.8,6.1c-3,4.1-4.5,10-4.6,17.9l0,6.5c0,8,1.4,14,4.3,18.2c2.8,4.2,7,6.3,12.5,6.3
		c5,0,8.8-1.1,11.3-3.4c2.5-2.3,4.1-6,4.8-11.3L587.8,462.5z"/>
	<path class="st5" d="M670,486.4l-12.7,0l0-32.7l-32.9,0l0,32.7l-12.8,0l-0.1-73.6l12.8,0l0,30.6l32.9,0l0-30.6l12.7,0L670,486.4z"
		/>
	<path class="st5" d="M755.8,486.3l-12.8,0l-32.8-52.2l0,52.2l-12.8,0l-0.1-73.6l12.8,0l32.9,52.4l0-52.4l12.7,0L755.8,486.3z"/>
	<path class="st5" d="M841.9,451.4c0,7.2-1.2,13.5-3.7,19c-2.5,5.4-6.1,9.6-10.7,12.5c-4.6,2.9-10,4.4-16,4.4c-6,0-11.3-1.4-16-4.4
		c-4.7-2.9-8.3-7.1-10.8-12.5c-2.6-5.4-3.8-11.6-3.9-18.6l0-4.1c0-7.2,1.3-13.5,3.8-19s6.1-9.7,10.8-12.6c4.6-2.9,9.9-4.4,15.9-4.4
		c6,0,11.3,1.4,15.9,4.3c4.6,2.9,8.2,7,10.8,12.4c2.5,5.4,3.8,11.7,3.9,18.9L841.9,451.4z M829.1,447.5c0-8.2-1.5-14.4-4.6-18.7
		c-3.1-4.3-7.5-6.5-13.1-6.5c-5.5,0-9.8,2.2-13,6.5c-3.1,4.3-4.7,10.5-4.8,18.4l0,4.2c0,8.1,1.6,14.3,4.7,18.7
		c3.2,4.4,7.5,6.6,13.1,6.6c5.7,0,10-2.2,13.1-6.5c3-4.3,4.6-10.6,4.6-18.9L829.1,447.5z"/>
	<path class="st5" d="M879.8,476l33.4,0l0,10.2l-46.2,0l-0.1-73.6l12.8,0L879.8,476z"/>
	<path class="st5" d="M990.8,451.3c0,7.2-1.2,13.5-3.7,19c-2.5,5.4-6.1,9.6-10.7,12.5c-4.6,2.9-10,4.4-16,4.4c-6,0-11.3-1.4-16-4.4
		c-4.7-2.9-8.3-7.1-10.8-12.5c-2.6-5.4-3.8-11.6-3.9-18.6l0-4.1c0-7.2,1.3-13.5,3.8-19c2.5-5.5,6.1-9.7,10.8-12.6
		c4.6-2.9,9.9-4.4,15.9-4.4c6,0,11.3,1.4,15.9,4.3c4.6,2.9,8.2,7,10.8,12.4c2.5,5.4,3.8,11.7,3.9,18.9L990.8,451.3z M978,447.4
		c0-8.2-1.5-14.4-4.6-18.7c-3.1-4.3-7.5-6.5-13.1-6.5c-5.5,0-9.8,2.2-13,6.5c-3.1,4.3-4.7,10.5-4.8,18.4l0,4.2
		c0,8.1,1.6,14.3,4.7,18.7c3.2,4.4,7.5,6.6,13.1,6.6c5.7,0,10-2.2,13.1-6.5c3-4.3,4.6-10.6,4.6-18.9L978,447.4z"/>
	<path class="st5" d="M1072.3,476.5c-2.7,3.5-6.3,6.1-11.1,7.9c-4.7,1.8-10.1,2.7-16.1,2.7c-6.2,0-11.6-1.4-16.4-4.2
		c-4.8-2.8-8.4-6.8-11-12c-2.6-5.2-3.9-11.3-4-18.2l0-5.8c0-11.1,2.7-19.8,8-26.1c5.3-6.3,12.7-9.4,22.3-9.4c8.2,0,14.7,2,19.5,6.1
		c4.8,4.1,7.7,9.9,8.7,17.5l-12.5,0c-1.4-8.9-6.6-13.3-15.4-13.3c-5.7,0-10.1,2.1-13.1,6.2c-3,4.1-4.5,10.2-4.6,18.2l0,5.7
		c0,7.9,1.7,14.1,5,18.5c3.4,4.4,8,6.6,14,6.6c6.5,0,11.2-1.5,14-4.5l0-14.4l-15.2,0l0-9.7l27.9,0L1072.3,476.5z"/>
	<path class="st5" d="M1122.6,447.3l16.9-34.9l14.2,0l-24.6,46.5l0,27.1l-12.8,0l0-27.1l-24.7-46.5l14.2,0L1122.6,447.3z"/>
	<path class="st5" d="M1234.8,459.6l-26.5,0l0-9.9l26.5,0L1234.8,459.6z"/>
	<path class="st5" d="M1313.1,412.3l21.3,56.4l21.1-56.4l16.5,0l0.1,73.6l-12.7,0l0-24.3l1.2-32.5l-21.7,56.7l-9.1,0l-21.7-56.6
		l1.3,32.4l0,24.3l-12.7,0l-0.1-73.6L1313.1,412.3z"/>
	<path class="st5" d="M1441.6,468.6l-28.5,0l-6,17.1l-13.3,0l27.7-73.6l11.5,0l27.9,73.6l-13.3,0L1441.6,468.6z M1416.6,458.3
		l21.3,0l-10.7-30.5L1416.6,458.3z"/>
	<path class="st5" d="M1508.6,457.4l-14.3,0l0,28.3l-12.8,0l-0.1-73.6l25.9,0c8.5,0,15,1.9,19.7,5.7c4.6,3.8,6.9,9.3,6.9,16.5
		c0,4.9-1.2,9-3.6,12.4c-2.4,3.3-5.7,5.9-9.9,7.7l16.6,30.6v0.7l-13.7,0L1508.6,457.4z M1494.3,447.1l13.1,0c4.3,0,7.7-1.1,10.1-3.3
		c2.4-2.2,3.6-5.2,3.6-8.9c0-3.9-1.1-7-3.4-9.1c-2.2-2.2-5.6-3.3-10-3.3l-13.5,0L1494.3,447.1z"/>
	<path class="st5" d="M1579.6,453.9l-8.3,8.9l0,22.9l-12.8,0l-0.1-73.6l12.8,0l0,34.5l7.1-8.8l21.5-25.8l15.5,0l-27.3,32.6l28.9,41
		l-15.2,0L1579.6,453.9z"/>
	<path class="st5" d="M1679.1,452.7l-30.2,0l0,22.6l35.3,0l0,10.2l-48.1,0L1636,412l47.8,0l0,10.3l-35,0l0,20.3l30.2,0L1679.1,452.7
		z"/>
	<path class="st5" d="M1761.1,422.2l-22.9,0l0.1,63.3l-12.7,0l-0.1-63.3l-22.8,0l0-10.3l58.4,0L1761.1,422.2z"/>
	<path class="st5" d="M1796.6,485.5l-12.7,0l-0.1-73.6l12.7,0L1796.6,485.5z"/>
	<path class="st5" d="M1883,485.4l-12.8,0l-32.8-52.2l0,52.2l-12.8,0l-0.1-73.6l12.8,0l32.9,52.4l0-52.4l12.7,0L1883,485.4z"/>
	<path class="st5" d="M1966.8,475.8c-2.7,3.5-6.3,6.1-11.1,7.9c-4.7,1.8-10.1,2.7-16.1,2.7c-6.2,0-11.6-1.4-16.4-4.2
		c-4.8-2.8-8.4-6.8-11-12c-2.6-5.2-3.9-11.3-4-18.2l0-5.8c0-11.1,2.7-19.8,8-26.1c5.3-6.3,12.7-9.4,22.3-9.4c8.2,0,14.7,2,19.5,6.1
		c4.8,4.1,7.7,9.9,8.7,17.5l-12.5,0c-1.4-8.9-6.6-13.3-15.4-13.3c-5.7,0-10.1,2.1-13.1,6.2c-3,4.1-4.5,10.2-4.6,18.2l0,5.7
		c0,7.9,1.7,14.1,5,18.5c3.4,4.4,8,6.6,14,6.6c6.5,0,11.2-1.5,14-4.5l0-14.4l-15.2,0l0-9.7l27.9,0L1966.8,475.8z"/>
</g>
</svg>
